<?xml version="1.0" encoding="utf-8"?>
<!-- Generator: Adobe Illustrator 16.0.0, SVG Export Plug-In . SVG Version: 6.00 Build 0)  -->
<!DOCTYPE svg PUBLIC "-//W3C//DTD SVG 1.1//EN" "http://www.w3.org/Graphics/SVG/1.1/DTD/svg11.dtd">
<svg version="1.1" id="Capa_1" xmlns="http://www.w3.org/2000/svg" xmlns:xlink="http://www.w3.org/1999/xlink" x="0px" y="0px"
	 width="143.928px" height="208.661px" viewBox="0 0 143.928 208.661" enable-background="new 0 0 143.928 208.661"
	 xml:space="preserve">
<g>
	<path fill-rule="evenodd" clip-rule="evenodd" fill="#DEE9DB" d="M91.793,34.232c2.725,6.069,4.388,12.494,6.222,18.854
		c2.949,10.23,4.958,20.677,6.726,31.163c0.782,4.643,1.149,9.355,1.704,14.036c0.735,11.548,1.386,23.093,0.523,34.67
		c-0.19,2.547-1.068,5.086-0.304,7.676c-1.364,2.069-1.072,4.569-1.737,6.83c-0.545,1.85-1.526,2.91-3.247,3.661
		c-11.029,4.809-22.625,6.424-34.502,5.655c-8.844-0.573-17.438-2.667-25.615-6.224c-1.951-0.849-2.087-2.81-2.588-4.512
		c-0.505-1.717-0.292-3.587-1.07-5.252c-0.319-4.812-0.748-9.617-0.934-14.433c-0.336-8.716,0.085-17.416,0.825-26.104
		c0.072-0.847,0.626-1.884-0.424-2.592c1.72-3.681,1.448-7.74,1.998-11.609c1.561-10.984,3.921-21.775,6.778-32.476
		c1.646-6.161,3.652-12.207,5.746-18.225c0.132-0.377,0.453-0.689,0.686-1.032c8.566,1.921,17.249,2.542,25.988,2.003
		C83.021,36.046,87.519,35.766,91.793,34.232z M71.357,82.772c8.527,0.729,15.882-5.92,16.728-15.122
		c0.746-8.118-6.217-15.894-14.849-16.583C64.488,50.369,56.8,57.07,56.282,66.284C55.788,75.091,62.727,82.496,71.357,82.772z"/>
	<path fill-rule="evenodd" clip-rule="evenodd" fill="#E96409" d="M37.372,97.659c1.05,0.708,0.497,1.745,0.424,2.592
		c-0.74,8.688-1.161,17.388-0.825,26.104c0.186,4.816,0.614,9.622,0.934,14.433c-7.63,1.412-14.976,3.898-22.439,5.938
		c-2.249,0.614-4.526,1.142-6.856,1.211c-6.241,0.187-9.671-3.968-8.316-10.015c1.451-6.477,5.015-11.856,9.002-16.983
		C16.935,111.117,26.518,103.616,37.372,97.659z"/>
	<path fill-rule="evenodd" clip-rule="evenodd" fill="#E9640A" d="M106.665,140.631c-0.764-2.59,0.114-5.129,0.304-7.676
		c0.863-11.577,0.211-23.122-0.523-34.67c15.647,8.669,28.178,20.381,35.885,36.79c0.884,1.883,1.462,3.869,1.582,5.97
		c0.188,3.3-1.204,5.131-4.423,6.008c-2.534,0.692-4.994,0.202-7.418-0.379c-7.629-1.829-15.232-3.764-22.851-5.637
		C108.385,140.832,107.517,140.763,106.665,140.631z"/>
	<path fill-rule="evenodd" clip-rule="evenodd" fill="#E96409" d="M53.498,31.735c1.708-6.879,4.755-13.222,7.95-19.487
		c1.917-3.759,4.044-7.415,7.156-10.373c2.612-2.482,4.556-2.513,7.151-0.02c3.092,2.972,5.208,6.647,7.11,10.416
		c3.167,6.274,6.159,12.635,7.937,19.482c-5.787,0.523-11.504,1.577-17.36,1.636C66.72,33.458,60.155,32.147,53.498,31.735z"/>
	<path fill-rule="evenodd" clip-rule="evenodd" fill="#E18034" d="M72.361,208.661c-3.582-7.115-6.886-14.301-9.981-21.58
		c-2.461-5.788-4.97-11.57-6.318-17.754c-0.753-3.459-0.008-4.779,3.451-5.632c5.68-1.402,11.491-1.06,17.269-1
		c3.107,0.033,6.223,0.152,9.237,1.017c3.266,0.939,3.959,2.137,3.252,5.519c-1.244,5.946-3.663,11.482-6.101,16.993
		c-2.964,6.699-6.085,13.33-9.183,19.969C73.601,207.019,73.384,208.003,72.361,208.661z M72.583,197.182
		c4.624-9.768,9.435-18.804,11.995-28.795c0.563-2.194-0.835-3.347-2.773-3.504c-6.025-0.49-12.077-0.494-18.094-0.015
		c-2.754,0.219-3.622,1.695-2.839,4.389C63.642,178.798,68.016,187.671,72.583,197.182z"/>
	<path fill-rule="evenodd" clip-rule="evenodd" fill="#CE5C06" d="M53.498,31.735c6.657,0.412,13.222,1.723,19.944,1.654
		c5.855-0.059,11.573-1.113,17.36-1.636c0.331,0.826,0.661,1.652,0.991,2.478c-4.275,1.534-8.772,1.814-13.226,2.088
		c-8.739,0.538-17.422-0.083-25.988-2.003C52.715,33.396,52.969,32.517,53.498,31.735z"/>
	<path fill-rule="evenodd" clip-rule="evenodd" fill="#DBBC07" d="M71.357,82.772c-8.63-0.277-15.569-7.682-15.075-16.488
		c0.518-9.214,8.206-15.915,16.954-15.217c8.632,0.689,15.595,8.465,14.849,16.583C87.239,76.853,79.884,83.502,71.357,82.772z
		 M72.118,54.063c-6.855-0.787-13.333,6.287-13.033,12.731c0.353,7.564,5.594,13.24,12.991,13.249
		c7.465,0.008,12.778-5.619,13.167-13.077C85.589,60.297,79.007,53.24,72.118,54.063z"/>
	<path fill-rule="evenodd" clip-rule="evenodd" fill="#F3DE2A" d="M72.583,197.182c-4.566-9.51-8.94-18.384-11.712-27.925
		c-0.782-2.694,0.085-4.17,2.839-4.389c6.018-0.479,12.069-0.475,18.094,0.015c1.938,0.157,3.335,1.31,2.773,3.504
		C82.018,178.378,77.207,187.414,72.583,197.182z M72.606,185.917c2.92-5.821,5.476-11.154,7.201-16.845
		c0.537-1.77-0.484-2.394-2.089-2.272c-3.184,0.24-6.349,0.327-9.549,0.04c-2.773-0.249-3.173,0.42-2.326,3.216
		C67.451,175.362,69.909,180.307,72.606,185.917z"/>
	<path fill-rule="evenodd" clip-rule="evenodd" fill="#FDDA29" d="M72.118,54.063c6.889-0.822,13.471,6.235,13.125,12.903
		c-0.388,7.458-5.701,13.085-13.167,13.077c-7.397-0.008-12.638-5.684-12.991-13.249C58.785,60.349,65.263,53.276,72.118,54.063z
		 M71.778,55.103c-0.868-0.265-2.018,0.307-3.151,0.623c-7.931,2.209-10.889,12.336-5.426,18.257
		c1.127,1.222,2.425,1.834,3.903,1.226c6.055-2.492,10.616-6.592,13.08-12.778c0.617-1.548,0.558-3.201-0.764-4.299
		C77.349,56.41,74.988,55.158,71.778,55.103z"/>
	<path fill-rule="evenodd" clip-rule="evenodd" fill="#FEFDF9" d="M72.606,185.917c-2.698-5.611-5.155-10.556-6.763-15.861
		c-0.847-2.796-0.447-3.465,2.326-3.216c3.2,0.287,6.365,0.201,9.549-0.04c1.605-0.122,2.626,0.502,2.089,2.272
		C78.082,174.764,75.527,180.097,72.606,185.917z"/>
	<path fill-rule="evenodd" clip-rule="evenodd" fill="#FEE26D" d="M71.778,55.103c3.209,0.055,5.571,1.308,7.642,3.028
		c1.322,1.098,1.381,2.751,0.764,4.299c-2.464,6.186-7.025,10.286-13.08,12.778c-1.478,0.609-2.776-0.003-3.903-1.226
		c-5.462-5.921-2.505-16.047,5.426-18.257C69.761,55.41,70.91,54.837,71.778,55.103z"/>
</g>
</svg>
